# xmcd
#
# Track frame offsets: 
#        150
#        10755
#        18912
#        30349
#        42364
#        52779
#        62287
#        71631
#        82826
#        91699
#        100677
#        110077
#        119277
#        131683
#        142249
#        150584
#        160249
#        170882
#        179319
#        189705
#        199698
#        208286
#
# Disc length: 2911 seconds
#
# Revision: 3
# Processed by: cddbd v1.5.2PL0 Copyright (c) Steve Scherf et al.
# Submitted via: ExactAudioCopyFreeDBPlugin 1.0
#
DISCID=240b5d16
DTITLE=Various Artist - The Stax Story:  1958-1962 [Real Gone Music]
DYEAR=2016
DGENRE=Soul
TTITLE0=Fred Byler and The Tunetts - Blue Roses
TTITLE1=Fred Byler and The Tunetts - Give Me Your Love
TTITLE2=Don Willis - Boppin' High School Baby
TTITLE3=Don Willis - Warrior Sam
TTITLE4=Donna Rae and The Sunbeams - Whisper Your Love
TTITLE5=Donna Rae and The Sunbeams - Little Fool
TTITLE6=Ray Scott and The Demens - You Drive Me Crazy
TTITLE7=Ray Scott and The Demens - Say  Anything But Not Goodbye
TTITLE8=The Vel-Tones - Fool in Love
TTITLE9=The Vel-Tones - Someday
TTITLE10=Charles Heinz - Prove Your Love
TTITLE11=Charles Heinz - Destiny
TTITLE12=Carla and Rufus - Cause I Love You
TTITLE13=Carla and Rufus - Deep Down Inside
TTITLE14=Charles Heinz - Suddenly
TTITLE15=Charles Heinz - Nobody Cares
TTITLE16=Carla Thomas - Gee Whizz
TTITLE17=Carla Thomas - For You
TTITLE18=The Chips - As You Can See
TTITLE19=The Chips - You Make Me Feel So Good
TTITLE20=Jimmy and The Spartans - You're My Girl
TTITLE21=Jimmy and The Spartans - Doesn't She Notice Me
EXTD=
EXTT0=
EXTT1=
EXTT2=
EXTT3=
EXTT4=
EXTT5=
EXTT6=
EXTT7=
EXTT8=
EXTT9=
EXTT10=
EXTT11=
EXTT12=
EXTT13=
EXTT14=
EXTT15=
EXTT16=
EXTT17=
EXTT18=
EXTT19=
EXTT20=
EXTT21=
PLAYORDER=
